<svg height="484pt" viewBox="-21 0 484 484.68278" width="484pt" xmlns="http://www.w3.org/2000/svg"><path d="m432.441406 112.882812-37.300781 118.5c-6.558594 20.824219-25.863281 34.992188-47.699219 35h-235.5l-.5.101563-26.101562-153.5.402344-.101563h65.597656c-.097656 1.398438-.097656 2.699219-.097656 4.101563 0 59.09375 47.90625 107 107 107s107-47.90625 107-107c0-1.402344 0-2.800781-.101563-4.101563zm0 0" fill="#00efd1"/><path d="m363.441406 393.082031c22.53125 0 40.800782 18.265625 40.800782 40.800781 0 22.53125-18.269532 40.800782-40.800782 40.800782-22.535156 0-40.800781-18.269532-40.800781-40.800782.023437-22.523437 18.277344-40.777343 40.800781-40.800781zm0 0" fill="#00acea"/><path d="m365.242188 112.882812c0 1.398438.097656 2.800782.097656 4.101563 0 59.09375-47.902344 107-107 107-59.09375 0-107-47.90625-107-107 0-1.402344 0-2.703125.101562-4.101563 2.195313-57.453124 49.40625-102.894531 106.898438-102.894531 57.496094 0 104.707031 45.441407 106.902344 102.894531zm0 0" fill="#fedb41"/><path d="m149.542969 393.082031c22.53125 0 40.796875 18.265625 40.796875 40.800781 0 22.53125-18.265625 40.800782-40.796875 40.800782-22.535157 0-40.800781-18.269532-40.800781-40.800782-.007813-10.824218 4.289062-21.203124 11.941406-28.855468 7.65625-7.652344 18.035156-11.949219 28.859375-11.945313zm0 0" fill="#00acea"/><g fill="#083863"><path d="m258.339844 159.382812c-9.214844-.015624-16.683594-7.484374-16.699219-16.699218 0-5.523438-4.476563-10-10-10s-10 4.476562-10 10c.019531 16.40625 10.917969 30.8125 26.699219 35.300781v8.097656c0 5.523438 4.480468 10 10 10 5.523437 0 10-4.476562 10-10v-8.097656c17.625-4.992187 28.871094-22.214844 26.351562-40.355469-2.519531-18.140625-18.035156-31.648437-36.351562-31.644531-9.222656 0-16.699219-7.476563-16.699219-16.703125 0-9.222656 7.476563-16.699219 16.699219-16.699219 9.226562 0 16.703125 7.476563 16.703125 16.699219 0 5.523438 4.476562 10 10 10 5.519531 0 10-4.476562 10-10-.023438-16.40625-10.917969-30.8125-26.703125-35.296875v-6c0-5.523437-4.476563-10-10-10-5.519532 0-10 4.476563-10 10v6c-17.621094 4.988281-28.867188 22.210937-26.347656 40.351563 2.519531 18.144531 18.03125 31.648437 36.347656 31.648437 9.226562 0 16.703125 7.476563 16.703125 16.699219s-7.476563 16.699218-16.703125 16.699218zm0 0"/><path d="m149.542969 383.082031c-28.058594 0-50.800781 22.746094-50.800781 50.800781 0 28.054688 22.742187 50.800782 50.800781 50.800782 28.054687 0 50.796875-22.746094 50.796875-50.800782-.039063-28.039062-22.757813-50.761718-50.796875-50.800781zm0 81.699219c-17.011719 0-30.800781-13.789062-30.800781-30.796875 0-17.011719 13.789062-30.800781 30.800781-30.800781 17.007812 0 30.796875 13.789062 30.796875 30.800781-.003906 17.003906-13.792969 30.792969-30.796875 30.796875zm0 0"/><path d="m363.441406 383.082031c-28.054687 0-50.800781 22.746094-50.800781 50.800781 0 28.054688 22.746094 50.800782 50.800781 50.800782 28.054688 0 50.800782-22.746094 50.800782-50.800782-.039063-28.039062-22.761719-50.761718-50.800782-50.800781zm0 81.699219c-17.011718 0-30.800781-13.789062-30.800781-30.796875 0-17.011719 13.789063-30.800781 30.800781-30.800781 17.011719 0 30.800782 13.789062 30.800782 30.800781-.007813 17.003906-13.792969 30.792969-30.800782 30.796875zm0 0"/><path d="m432.441406 102.882812h-57.898437c-7.117188-58.71875-56.953125-102.882812-116.101563-102.882812-59.148437 0-108.984375 44.164062-116.101562 102.882812h-48.296875l-7.402344-43.601562c-5-28.839844-30.027344-49.898438-59.300781-49.898438h-17c-5.519532 0-10 4.476563-10 10 0 5.523438 4.480468 10 10 10h17c19.527344-.078124 36.222656 14.03125 39.402344 33.300782l40.097656 236.300781c4.859375 28.894531 29.898437 50.046875 59.203125 50h228.199219c5.523437 0 10-4.480469 10-10 0-5.523437-4.476563-10-10-10h-228.199219c-19.527344.074219-36.222657-14.035156-39.402344-33.300781l-3.300781-19.300782h224.101562c26.214844.058594 49.40625-16.972656 57.199219-42l37.300781-118.5c.980469-3.035156.421875-6.355468-1.5-8.898437-1.875-2.546875-4.839844-4.0625-8-4.101563zm-271 10.398438c1.992188-52.074219 44.789063-93.257812 96.898438-93.257812 52.113281 0 94.90625 41.183593 96.902344 93.257812 0 1.300781.097656 2.601562.097656 3.800781 0 53.574219-43.425782 97-97 97-53.570313 0-97-43.425781-97-97 0-1.199219 0-2.5.101562-3.800781zm224.101563 115.101562c-5.230469 16.691407-20.710938 28.039063-38.203125 28h-227.398438l-22.699218-133.5h44.199218c3.164063 62.253907 54.566406 111.105469 116.898438 111.105469 62.335937 0 113.734375-48.851562 116.902344-111.105469h43.597656zm0 0"/></g></svg>